<?xml version="1.0" encoding="iso-8859-1"?>
<!-- Uploaded to: SVG Repo, www.svgrepo.com, Generator: SVG Repo Mixer Tools -->
<svg height="800px" width="800px" version="1.1" id="Layer_1" xmlns="http://www.w3.org/2000/svg" xmlns:xlink="http://www.w3.org/1999/xlink" 
	 viewBox="0 0 512.001 512.001" xml:space="preserve">
<path style="fill:#FFB655;" d="M508.791,279.115c-4.18-7.111-11.813-11.478-20.063-11.478h-93.091v-69.818
	c0-7.928-0.675-15.701-1.95-23.273c-11.113-65.956-68.62-116.364-137.686-116.364c-34.534,0-66.177,12.601-90.576,33.448
	c-3.05,2.607-5.986,5.34-8.802,8.195c-7.038,7.137-13.315,15.026-18.697,23.535c-9.691,15.315-16.485,32.635-19.611,51.184
	c-0.32,1.893-0.6,3.798-0.842,5.716c-0.728,5.755-1.108,11.613-1.108,17.56v69.818H23.274c-5.671,0-11.051,2.064-15.219,5.665
	c-1.894,1.637-3.537,3.59-4.844,5.814c-0.784,1.333-1.424,2.726-1.922,4.156c-1.657,4.768-1.718,9.951-0.174,14.756
	c0.464,1.441,1.071,2.849,1.823,4.2c25.147,45.182,61.341,83.096,104.668,109.644c11.196,6.861,22.8,12.912,34.726,18.131
	c8.944,3.914,18.069,7.359,27.338,10.325c6.18,1.978,12.423,3.742,18.719,5.291s12.646,2.881,19.039,3.995
	c9.588,1.671,19.273,2.849,29.016,3.525c6.496,0.45,13.017,0.676,19.555,0.676c52.297,0,103.61-14.504,148.395-41.945
	c43.328-26.548,79.521-64.462,104.668-109.644C513.076,295.021,512.972,286.227,508.791,279.115z"/>
<path style="fill:#FF6243;" d="M393.687,174.548H256.001H118.315c-1.275,7.571-1.95,15.344-1.95,23.273v69.818h139.636h139.636
	V197.82C395.637,189.891,394.964,182.118,393.687,174.548z"/>
<g>
	<path style="fill:#EE8700;" d="M116.365,267.639H23.274c-8.248,0-15.881,4.366-20.063,11.478
		c-4.181,7.111-4.285,15.905-0.273,23.113c25.147,45.182,61.341,83.096,104.668,109.644c44.784,27.44,96.098,41.945,148.395,41.945
		v-186.18H116.365z"/>
	<path style="fill:#EE8700;" d="M256.001,58.184c-69.067,0-126.573,50.407-137.686,116.364h137.686V58.184z"/>
</g>
<path style="fill:#FF0C38;" d="M256.001,174.548H118.315c-1.275,7.571-1.95,15.344-1.95,23.273v69.818h139.636V174.548z"/>
</svg>